HIERARCHY
ROOT Hips
{
 OFFSET 0.000000 0.000000 0.000000
 CHANNELS 6 Xposition Yposition Zposition Yrotation Xrotation Zrotation
 JOINT Chest
 {
  OFFSET 0.000000 14.634200 -0.016200
  CHANNELS 3 Yrotation Xrotation Zrotation
  JOINT Chest2
  {
   OFFSET 0.000000 8.932900 0.033000
   CHANNELS 3 Yrotation Xrotation Zrotation
   JOINT Chest3
   {
    OFFSET 0.000000 8.892300 0.000000
    CHANNELS 3 Yrotation Xrotation Zrotation
    JOINT Chest4
    {
     OFFSET 0.000000 8.883200 0.000000
     CHANNELS 3 Yrotation Xrotation Zrotation
     JOINT Neck
     {
      OFFSET 0.000000 13.173600 0.000000
      CHANNELS 3 Yrotation Xrotation Zrotation
      JOINT Head
      {
       OFFSET 0.000000 8.324600 0.069800
       CHANNELS 3 Yrotation Xrotation Zrotation
       End Site
       {
        OFFSET 0.000000 15.692400 0.036900
       }
      }
     }
     JOINT RightCollar
     {
      OFFSET -2.619200 8.772200 0.000000
      CHANNELS 3 Yrotation Xrotation Zrotation
      JOINT RightShoulder
      {
       OFFSET -12.922000 0.000000 0.000000
       CHANNELS 3 Yrotation Xrotation Zrotation
       JOINT RightElbow
       {
        OFFSET 0.000000 -27.880900 0.000000
        CHANNELS 3 Yrotation Xrotation Zrotation
        JOINT RightWrist
        {
         OFFSET 0.000000 -22.758700 0.008200
         CHANNELS 3 Yrotation Xrotation Zrotation
         End Site
         {
          OFFSET 0.000000 -16.965000 0.000000
         }
        }
       }
      }
     }
     JOINT LeftCollar
     {
      OFFSET 2.619200 8.772200 0.000000
      CHANNELS 3 Yrotation Xrotation Zrotation
      JOINT LeftShoulder
      {
       OFFSET 12.922000 0.000000 0.000000
       CHANNELS 3 Yrotation Xrotation Zrotation
       JOINT LeftElbow
       {
        OFFSET 0.000000 -27.880900 0.000000
        CHANNELS 3 Yrotation Xrotation Zrotation
        JOINT LeftWrist
        {
         OFFSET 0.000000 -22.758700 0.008200
         CHANNELS 3 Yrotation Xrotation Zrotation
         End Site
         {
          OFFSET 0.000000 -16.965000 0.000000
         }
        }
       }
      }
     }
    }
   }
  }
 }
 JOINT RightHip
 {
  OFFSET -12.026800 0.080100 0.008100
  CHANNELS 3 Yrotation Xrotation Zrotation
  JOINT RightKnee
  {
   OFFSET 0.000000 -42.600800 -0.000200
   CHANNELS 3 Yrotation Xrotation Zrotation
   JOINT RightAnkle
   {
    OFFSET 0.000000 -38.219300 0.054300
    CHANNELS 3 Yrotation Xrotation Zrotation
    JOINT RightToe
    {
     OFFSET 0.000000 -9.685800 15.804700
     CHANNELS 3 Yrotation Xrotation Zrotation
     End Site
     {
      OFFSET 0.000000 -1.422300 5.761700
     }
    }
   }
  }
 }
 JOINT LeftHip
 {
  OFFSET 12.026800 0.080100 0.008100
  CHANNELS 3 Yrotation Xrotation Zrotation
  JOINT LeftKnee
  {
   OFFSET 0.000000 -42.600800 -0.000200
   CHANNELS 3 Yrotation Xrotation Zrotation
   JOINT LeftAnkle
   {
    OFFSET 0.000000 -38.219300 0.054300
    CHANNELS 3 Yrotation Xrotation Zrotation
    JOINT LeftToe
    {
     OFFSET 0.000000 -9.685800 15.804700
     CHANNELS 3 Yrotation Xrotation Zrotation
     End Site
     {
      OFFSET 0.000000 -1.422300 5.761700
     }
    }
   }
  }
 }
}
MOTION
Frames: 5
Frame Time: 0.008333
0.000000 90.254400 0.000000 0.000000 -5.767877 0.000000 0.000000 11.653817 0.000000 0.000000 -5.885947 0.000000 0.000000 -0.000000 0.000000 0.000000 -0.000000 0.000000 0.000000 12.528835 0.000000 0.000000 0.711642 0.000000 0.000000 -0.000000 0.000000 0.000000 0.000000 -90.000000 0.000000 -2.309062 0.000000 0.000000 2.309062 0.000000 0.000000 -0.000000 0.000000 0.000000 -0.000000 90.000000 0.000000 -2.309062 0.000000 0.000000 2.309062 0.000000 0.000000 8.520406 0.000000 0.000000 1.905762 0.000000 -0.000000 -4.658285 0.000000 0.000000 -0.000000 0.000000 0.000000 8.520406 0.000000 0.000000 1.905762 0.000000 -0.000000 -4.658285 0.000000 0.000000 -0.000000 0.000000
-9.447452 151.745433 23.502963 169.740133 -18.300833 0.149181 1.240760 18.006972 1.327046 0.116366 2.004270 0.128703 0.196534 3.324226 0.212724 1.061041 15.733128 1.148335 -2.713715 13.507111 -2.590246 -2.266228 -11.498045 -2.111349 3.719697 -4.655877 -0.170209 16.299152 -18.905479 -11.054892 46.466233 -51.161022 -26.061003 20.269310 15.288711 -27.048585 -9.622145 -2.719411 -1.428428 0.849875 -21.017012 7.942553 -6.086644 -61.819819 -7.480709 -11.688939 8.513808 18.648468 -4.343619 -53.903388 13.720008 -29.912720 76.665656 -42.049907 -8.276217 -18.326602 9.140494 -0.001135 -0.009303 0.005015 16.243170 -56.315217 -21.447542 85.838222 75.759302 94.783468 9.085582 5.774869 -4.221891 0.007068 -4.869771 0.027339
-11.335328 144.570205 25.513827 169.738359 -18.301447 0.146778 1.244399 18.008472 1.327991 0.116634 2.004357 0.128372 0.196250 3.324081 0.212847 1.062022 15.733244 1.148288 -2.715914 13.507434 -2.590920 -2.265610 -11.499685 -2.111854 3.724347 -4.652015 -0.174014 16.293931 -18.907312 -11.056012 46.464457 -51.166686 -26.061501 20.273219 15.294081 -27.041869 -9.618323 -2.717486 -1.429914 0.847661 -21.013799 7.949524 -6.036536 -61.833270 -7.530058 -11.707509 8.519550 18.646291 -4.347257 -53.903100 13.725557 -29.920643 76.664388 -42.057917 -8.275506 -18.327318 9.139224 0.000303 -0.011262 0.000185 16.239356 -56.313795 -21.443116 85.851723 75.759287 94.795895 9.086767 5.769566 -4.219163 0.003138 0.003364 0.001923
-12.890434 138.661065 27.169952 169.738850 -18.300655 0.144573 1.245549 18.009570 1.326221 0.117241 2.003490 0.128750 0.195580 3.323789 0.214562 1.060736 15.732918 1.144872 -2.714284 13.507501 -2.590988 -2.266720 -11.501308 -2.112405 3.728931 -4.647884 -0.175791 16.289536 -18.904577 -11.051156 46.476302 -51.168160 -26.069262 20.275939 15.300128 -27.041702 -9.613045 -2.715068 -1.429487 0.846815 -21.013121 7.952452 -6.016959 -61.838524 -7.554984 -11.702588 8.516986 18.641283 -4.351784 -53.903473 13.728530 -29.920138 76.664902 -42.057993 -8.276963 -18.329177 9.140036 0.000143 -0.009201 0.000087 16.236732 -56.312818 -21.441605 85.840923 75.762587 94.788516 9.090853 5.772654 -4.220941 0.000632 0.001596 0.000387
-14.013143 134.393461 28.365370 169.738203 -18.302312 0.140702 1.246100 18.013447 1.327079 0.118928 2.001467 0.131043 0.194154 3.325812 0.212208 1.062319 15.733122 1.144023 -2.715033 13.505178 -2.591387 -2.266285 -11.502137 -2.111827 3.728960 -4.646707 -0.176523 16.300794 -18.901231 -11.056563 46.458663 -51.167868 -26.063608 20.277025 15.292879 -27.047977 -9.610384 -2.713830 -1.430688 0.848498 -21.014395 7.955193 -6.002692 -61.843085 -7.577264 -11.706015 8.519657 18.644284 -4.357158 -53.902465 13.733703 -29.922453 76.666047 -42.061107 -8.274533 -18.329156 9.140593 -0.001298 -0.008942 -0.000795 16.232071 -56.311257 -21.434637 85.858901 75.757920 94.810362 9.084932 5.767084 -4.225340 -0.000239 0.001706 -0.000147
